<svg version="1.1" id="Layer_1" xmlns="http://www.w3.org/2000/svg" xmlns:xlink="http://www.w3.org/1999/xlink" x="0px" y="0px"
	 width="100%" viewBox="0 0 608 608" enable-background="new 0 0 608 608" xml:space="preserve">
<path fill="#000000" opacity="1.000000" stroke="none" 
	d="
M290.468262,609.000000 
	C287.725067,606.427917 284.324921,607.727478 281.564880,606.519531 
	C274.440857,603.401733 268.193237,599.103516 262.644470,593.737488 
	C260.667664,591.825806 258.545990,590.690674 255.720078,590.221069 
	C213.401230,583.188965 176.015732,564.971741 141.112762,540.548950 
	C115.915962,522.917908 95.188919,501.161774 77.438164,476.338806 
	C73.282890,470.527985 69.611588,464.349121 66.026184,458.160828 
	C63.821949,454.356415 60.988415,451.709839 56.813988,450.277618 
	C41.151669,444.904053 31.769300,433.165802 27.226973,418.064423 
	C23.130932,404.446777 23.430317,390.507111 30.898983,377.557220 
	C33.664917,372.761414 33.043961,367.753693 31.790134,362.598206 
	C29.365662,352.629150 27.223236,342.533386 26.825773,332.286438 
	C26.341761,319.808197 26.789810,307.296265 26.688108,294.800079 
	C26.583796,281.982849 29.449829,269.602692 32.030148,257.184906 
	C32.764648,253.650162 33.233643,250.069656 34.448792,246.586777 
	C35.553722,243.419815 33.759926,240.494110 32.021263,237.743271 
	C26.951431,229.721954 23.319935,220.728714 23.953117,211.470047 
	C25.344137,191.130005 32.811047,171.193146 60.745392,164.521652 
	C65.545174,163.375320 69.123009,160.810593 72.014755,156.332443 
	C89.027672,129.986267 109.173798,106.457840 134.823700,87.963043 
	C142.810532,82.204155 150.718903,76.453575 159.908936,72.705917 
	C165.143829,70.571152 168.192703,66.673874 170.090622,61.220829 
	C174.637955,48.155632 185.379593,41.701958 197.446121,36.786598 
	C210.242050,31.574110 222.854004,32.257168 235.465424,37.331116 
	C238.440109,38.527927 241.621826,39.204304 244.771255,38.665340 
	C259.675476,36.114784 274.916840,36.141567 289.700989,34.014805 
	C304.310394,31.913179 318.157501,35.223087 332.328369,35.348721 
	C340.854675,35.424320 350.097900,36.185509 358.685760,39.421829 
	C364.272369,41.527138 369.708893,37.928116 375.088165,36.423508 
	C382.200378,34.434196 388.811188,32.857990 396.730560,34.215527 
	C410.724274,36.614326 421.570679,42.917511 430.281616,53.647427 
	C431.640747,55.321629 433.269470,57.027546 433.901093,58.998386 
	C436.626129,67.501572 443.330627,71.620209 450.501190,75.897362 
	C480.827179,93.986481 507.614899,116.140709 527.928162,145.432587 
	C529.730225,148.031189 531.897217,150.525452 533.034851,153.407608 
	C536.185852,161.390335 542.945618,163.066315 550.274414,164.726425 
	C566.401550,168.379547 577.001831,178.824661 582.130127,194.126465 
	C586.686584,207.721741 585.830200,221.777466 578.179504,234.013000 
	C572.740479,242.711365 572.830994,250.710098 575.318848,259.899780 
	C577.736084,268.828400 578.538147,278.108002 579.759888,287.297852 
	C580.744446,294.703339 580.849609,302.134857 581.775269,309.516296 
	C583.292297,321.614075 581.396057,333.630676 579.965271,345.655609 
	C579.065979,353.214172 577.983398,360.707886 576.412720,368.153503 
	C575.768738,371.206207 576.947632,373.995544 578.652954,376.620209 
	C592.050415,397.240204 584.284668,427.993866 566.826782,442.739655 
	C561.747437,447.029907 555.952026,449.826538 549.799194,451.815582 
	C546.113953,453.006866 543.877502,455.279968 542.030212,458.342133 
	C520.339661,494.297974 491.688965,523.465820 456.554688,546.406494 
	C435.421417,560.205261 413.223267,571.766724 389.087708,579.317505 
	C378.201202,582.723328 367.175690,585.697449 356.161194,588.674988 
	C351.733826,589.871826 334.762390,596.949768 330.989899,599.454346 
	C324.436279,603.805298 317.572388,607.482056 309.306519,608.778320 
	C302.978851,609.000000 296.957703,609.000000 290.468262,609.000000 
M387.134613,404.341705 
	C376.388062,388.482544 365.601746,372.650116 354.905548,356.757050 
	C343.001648,339.069489 331.077728,321.393951 319.347809,303.591064 
	C304.226715,280.641266 289.466522,257.452179 274.213440,234.591293 
	C263.308807,218.247742 251.412445,202.560883 241.817047,185.359543 
	C240.737411,183.424118 239.190323,183.082657 237.241684,183.095276 
	C218.910400,183.213959 200.578812,183.288605 182.247650,183.421753 
	C180.830109,183.432037 179.213608,183.262817 178.006149,185.364014 
	C182.118408,191.725983 186.212418,198.366058 190.606461,204.801254 
	C204.882553,225.709106 219.888992,246.112778 233.591141,267.419067 
	C245.842270,286.469025 258.190155,305.458191 270.655273,324.368744 
	C287.798615,350.376526 305.139496,376.254059 322.308533,402.244965 
	C338.282990,426.427521 354.173218,450.665985 370.012909,474.937012 
	C371.841522,477.738922 373.865692,478.889709 377.348907,478.820465 
	C394.990784,478.469757 412.647156,477.850189 430.265411,479.584442 
	C431.672424,479.722961 433.310944,480.089264 434.847565,477.833893 
	C419.192444,453.709961 403.367584,429.324402 387.134613,404.341705 
M237.724747,443.500031 
	C237.757782,421.002106 237.572739,398.501038 237.895996,376.007294 
	C238.135178,359.363678 235.768143,342.516632 239.044174,326.148102 
	C240.653824,318.105408 238.041016,312.733734 234.145218,306.929626 
	C222.261185,289.224365 210.494095,271.437988 198.385727,253.887222 
	C193.554718,246.884796 189.403168,239.302872 183.090118,233.186478 
	C181.802780,235.022278 182.295166,236.731674 182.294769,238.333542 
	C182.287872,265.831207 182.338058,293.328857 182.340500,320.826538 
	C182.344971,371.155853 182.338013,421.485199 182.291367,471.814484 
	C182.288239,475.197815 182.059875,477.994904 187.014984,477.898071 
	C201.842133,477.608429 216.677338,477.642731 231.508652,477.712189 
	C235.930893,477.732880 237.859177,476.052460 237.765610,471.496674 
	C237.580856,462.501312 237.719116,453.499329 237.724747,443.500031 
M422.876099,254.499878 
	C422.889862,251.167358 422.893677,247.834747 422.918976,244.502319 
	C423.063080,225.517593 422.091492,206.518753 423.575684,187.551895 
	C423.886780,183.576447 421.435150,183.328232 418.494934,183.335739 
	C403.164948,183.374863 387.832642,183.515396 372.506195,183.283722 
	C367.799316,183.212555 366.179596,184.523743 366.234100,189.460754 
	C366.497101,213.280731 366.400238,237.104889 366.395905,260.927551 
	C366.392059,281.923004 366.472992,302.920044 366.216217,323.912720 
	C366.154877,328.926208 365.968262,333.361816 369.067352,337.984894 
	C384.089966,360.394806 399.349609,382.655853 413.521301,405.628357 
	C416.572845,410.574982 419.840881,415.388031 423.009155,420.262634 
	C422.529236,365.118469 422.602081,310.309540 422.876099,254.499878 
M249.648544,140.838333 
	C252.335403,145.427841 254.701218,150.244980 257.765503,154.566864 
	C270.107117,171.973495 281.623077,189.873550 289.936127,209.584473 
	C293.533722,218.114609 300.336395,224.343307 303.896027,232.898819 
	C306.507812,231.061768 306.168884,229.013748 306.509491,227.322540 
	C307.209991,223.844223 307.999695,220.275375 310.292145,217.633301 
	C321.553894,204.654099 327.442108,188.386230 337.005249,174.354172 
	C340.403259,169.368286 342.100677,163.318100 346.184937,158.501770 
	C354.356384,148.865616 358.331818,136.783630 364.258240,125.833443 
	C365.196625,124.099640 365.758728,121.684700 363.609161,120.415924 
	C359.628967,118.066612 357.925140,114.039352 355.388184,110.569435 
	C352.434357,106.529495 350.841797,100.951378 344.841675,99.947060 
	C337.027405,98.639099 329.210510,96.480804 321.370331,96.366859 
	C302.639832,96.094650 283.887360,95.121811 265.240631,99.112206 
	C248.417114,102.712425 240.043716,116.109726 245.807098,132.449524 
	C246.744873,135.108215 248.113312,137.615036 249.648544,140.838333 
M470.963135,360.448914 
	C478.415710,364.480316 485.882751,368.485382 493.311188,372.560791 
	C495.286896,373.644714 497.272003,374.016846 498.702087,372.092072 
	C501.936676,367.738708 506.723602,365.759949 511.230408,363.278351 
	C514.149658,361.670959 517.069153,359.926422 517.854309,356.246674 
	C520.736267,342.740295 522.603394,329.015961 522.485046,315.279602 
	C522.352295,299.871307 520.099243,284.531738 517.571350,269.302826 
	C516.896240,265.235535 515.785583,261.226685 514.664490,257.250336 
	C512.762451,250.503967 507.641296,247.702042 502.385193,250.683990 
	C483.712097,261.277802 465.110657,271.995300 447.097107,283.700562 
	C444.632111,285.302307 443.259857,287.160217 443.268799,290.168396 
	C443.315491,305.833527 443.136719,321.500916 443.350861,337.163208 
	C443.437469,343.499664 445.883331,348.567627 452.414307,351.266205 
	C458.546082,353.799866 464.355164,357.114349 470.963135,360.448914 
M132.211823,268.443878 
	C123.655357,263.652832 114.750427,259.441772 106.862114,253.530685 
	C100.337440,248.641434 93.361847,250.746872 91.650215,258.888458 
	C88.453766,274.092651 84.972878,289.291107 85.217834,305.010620 
	C85.416893,317.784943 84.515831,330.633820 86.639832,343.280518 
	C87.601212,349.004822 87.176697,355.694031 92.180267,359.911774 
	C101.557281,367.816101 112.942360,368.676849 124.084084,365.999512 
	C134.251129,363.556427 142.575424,356.135620 152.432312,352.684204 
	C160.261215,349.942841 162.881195,344.586670 162.946655,337.298004 
	C163.093155,320.990509 162.969940,304.680481 162.933914,288.371582 
	C162.927628,285.524078 162.022079,283.157837 159.188232,281.887665 
	C150.242630,277.877960 142.131943,272.189697 132.211823,268.443878 
M466.318665,517.808655 
	C489.970673,499.713959 510.238373,478.615417 525.989075,452.129578 
	C517.242615,450.335388 511.536469,445.821564 506.017059,440.332672 
	C498.887238,450.224030 492.068115,459.617828 484.224640,468.235443 
	C456.604980,498.581177 423.949585,521.484070 385.409973,535.838928 
	C375.710419,539.451721 365.657135,541.769226 355.604553,544.066772 
	C351.532684,544.997375 349.423218,546.403687 351.105591,551.157532 
	C352.665680,555.565735 352.576050,560.355713 352.290070,565.016235 
	C352.033051,569.205444 353.762451,570.486145 357.656891,569.358337 
	C365.804749,566.998718 374.041779,564.912964 382.095520,562.268127 
	C412.444244,552.301575 439.786102,536.561462 466.318665,517.808655 
M202.276978,528.326782 
	C161.989014,507.451202 127.242569,480.250763 103.452049,440.152405 
	C97.449631,446.385773 91.727554,451.087128 84.051445,452.997192 
	C84.684113,454.586578 84.905815,455.578033 85.423172,456.378387 
	C93.662033,469.124023 102.101921,481.782257 112.690147,492.700714 
	C149.812393,530.980591 194.588455,556.046753 246.143433,569.251770 
	C249.551270,570.124634 250.703308,568.997681 250.697906,565.633423 
	C250.690445,560.989014 249.960632,556.208801 251.672226,551.753540 
	C253.473328,547.065430 251.602097,545.433167 247.196060,544.205872 
	C232.115738,540.005432 217.201843,535.252075 202.276978,528.326782 
M480.525726,180.972107 
	C467.127350,164.028229 451.198517,149.659836 434.695343,135.867355 
	C429.433563,131.469818 423.689758,127.857262 417.732056,124.485954 
	C413.292450,121.973694 410.036102,122.864136 406.773254,126.520012 
	C398.406555,135.894455 392.360657,146.859497 385.446899,157.223999 
	C383.119843,160.712509 384.168915,162.363403 388.340973,162.665665 
	C389.832550,162.773727 391.339630,162.650192 392.835327,162.722153 
	C408.143646,163.458679 423.235016,159.728516 438.592285,160.625916 
	C443.325653,160.902527 444.922638,162.327545 444.354126,166.786697 
	C443.913788,170.240677 443.330597,173.712204 443.313324,177.178436 
	C443.212006,197.493820 443.238739,217.809998 443.290924,238.125732 
	C443.295288,239.827240 442.542053,241.816910 444.736420,243.474609 
	C455.819641,235.643066 468.423889,230.420364 480.673584,224.553513 
	C486.014618,221.995483 488.937988,218.871613 487.822815,212.719360 
	C487.535553,211.134674 487.554718,209.233444 488.167450,207.789139 
	C492.026825,198.691864 489.836456,191.067276 482.990875,184.380951 
	C482.169891,183.579041 481.613464,182.506302 480.525726,180.972107 
M233.109329,519.265564 
	C241.003403,522.872253 249.459381,524.642822 257.801910,526.768555 
	C259.965240,527.319763 262.315765,527.093323 264.088013,525.838257 
	C268.817505,522.489075 273.397797,518.920166 277.904388,515.274170 
	C278.677765,514.648499 279.281006,513.145813 279.144226,512.162048 
	C277.244537,498.502014 280.102875,484.948517 279.956665,471.310425 
	C279.741180,451.206696 277.172394,431.105316 279.768066,410.968414 
	C280.363190,406.351257 281.043396,401.676941 284.394287,398.634521 
	C289.140320,394.325348 287.646973,390.673920 284.828644,386.423096 
	C278.118805,376.302887 271.530151,366.102356 264.886902,355.937958 
	C263.997223,354.576691 263.294098,352.949463 261.047974,353.099152 
	C260.048706,353.964172 259.554169,355.185272 259.448486,356.528015 
	C259.005768,362.154541 258.318817,367.783020 258.274811,373.415131 
	C258.189056,384.384460 258.857697,395.356262 259.124451,406.307159 
	C259.862091,436.593231 259.539978,466.905579 258.370087,497.197723 
	C258.210876,501.320801 256.893036,502.338318 252.764145,502.538116 
	C242.236710,503.047668 231.950302,500.452057 221.444458,500.830414 
	C214.313660,501.087158 207.126938,501.422424 200.000229,500.332825 
	C198.479218,500.100250 196.525116,498.682526 195.607834,500.888855 
	C194.803680,502.823090 196.785828,503.779236 198.023804,504.787811 
	C198.915085,505.513947 200.025070,505.966644 201.016068,506.576172 
	C210.742325,512.558167 221.625366,515.610535 233.109329,519.265564 
M160.115677,178.221054 
	C160.124146,174.723038 159.940018,171.211426 160.185715,167.730148 
	C160.564911,162.357681 162.345062,160.823914 167.772568,160.819168 
	C180.434494,160.808090 193.096436,160.841263 205.758377,160.857742 
	C208.427765,160.861221 211.041412,160.935516 213.555618,162.169571 
	C215.207825,162.980515 217.337997,163.352768 218.733032,161.935684 
	C220.470383,160.170868 218.593597,158.532150 217.742310,157.057816 
	C212.641113,148.223206 205.894928,140.567535 199.890549,132.379379 
	C192.720032,122.600937 193.713470,120.421829 181.552200,128.541367 
	C157.556915,144.561966 137.627686,164.527191 120.905861,187.885925 
	C117.596512,192.508743 117.276848,197.632309 118.889389,202.664505 
	C120.222191,206.823761 120.516159,210.800140 119.497375,214.908249 
	C118.439873,219.172516 119.918037,221.584885 123.900307,223.592621 
	C135.629898,229.506271 147.414322,235.373672 158.159882,243.043488 
	C159.228485,243.806229 160.431793,244.820496 161.774445,243.965393 
	C163.459702,242.892090 163.248184,240.953461 162.889175,239.406433 
	C160.823044,230.503021 161.928253,221.480927 161.757126,212.515991 
	C161.544418,201.373444 162.218384,190.197357 160.115677,178.221054 
M166.570343,114.029083 
	C169.290512,111.438332 173.209198,110.319626 175.736664,106.743660 
	C170.293549,100.759453 167.632568,93.522652 165.941010,85.081047 
	C132.308899,104.614052 104.416451,129.051437 84.177719,162.794144 
	C93.306374,165.874329 100.312408,170.420746 106.562737,176.722031 
	C110.799561,169.444168 115.276146,163.261368 120.176094,157.395309 
	C133.694504,141.211456 149.333557,127.286774 166.570343,114.029083 
M461.953827,395.669800 
	C457.749725,393.699615 453.513245,391.795166 449.349823,389.742432 
	C444.320160,387.262543 443.256958,387.823517 443.243561,393.451294 
	C443.205170,409.588593 443.556458,425.735107 443.107147,441.859985 
	C442.838409,451.503906 444.654480,460.217773 449.958984,468.310333 
	C452.557648,472.274872 453.773834,472.767059 457.101532,469.266846 
	C468.796143,456.965881 480.149445,444.358490 489.812714,430.353699 
	C495.058868,422.750610 491.494598,409.009766 483.146301,405.013397 
	C476.415527,401.791412 469.476593,399.004242 461.953827,395.669800 
M329.591766,551.086060 
	C323.462250,536.766846 313.035767,530.662598 297.511688,532.304565 
	C281.134460,534.036865 268.902374,551.279968 272.933716,566.951416 
	C277.156311,583.366333 293.400452,593.502258 308.735992,589.291138 
	C325.129211,584.789490 334.307037,568.499573 329.591766,551.086060 
M519.148804,165.696182 
	C520.449219,165.059631 522.083252,165.002350 523.068054,163.363174 
	C500.630035,132.227570 473.734406,105.942467 439.965332,86.208832 
	C438.341980,93.649284 436.096588,99.913063 432.588165,105.595161 
	C430.842468,108.422424 432.004395,109.770332 434.188934,111.249298 
	C459.352478,128.285309 481.207947,148.815628 499.235138,173.311996 
	C501.519257,176.415787 503.363495,176.528030 506.029846,174.142899 
	C509.765411,170.801346 513.793335,167.863770 519.148804,165.696182 
M119.103798,430.311096 
	C130.862000,448.096954 145.128601,463.712250 161.448959,479.724884 
	C162.411209,447.880035 160.661774,417.449799 162.853699,385.770508 
	C149.351959,394.593994 135.812561,399.396881 123.503593,406.573364 
	C117.403069,410.130096 114.735466,423.396454 119.103798,430.311096 
M559.778503,227.224991 
	C563.682312,220.220612 566.113647,212.808258 564.189148,204.783997 
	C560.249451,188.357086 543.373962,178.874481 527.606323,183.958481 
	C512.369019,188.871521 505.094421,205.401840 511.479767,221.274017 
	C515.455872,231.157562 522.517273,238.065659 533.367493,239.532013 
	C544.199707,240.995911 553.438660,237.782745 559.778503,227.224991 
M511.730286,393.388672 
	C509.826996,397.846130 510.105072,402.558350 510.395447,407.190491 
	C511.389221,423.041626 527.319153,435.009949 542.735962,431.934418 
	C554.978699,429.492065 561.066833,421.161041 564.186951,410.089539 
	C569.168335,392.413544 555.251770,374.711334 536.906555,375.321228 
	C524.981384,375.717712 517.340149,382.597900 511.730286,393.388672 
M324.989929,459.574677 
	C324.990753,475.568756 325.181122,491.566284 324.887726,507.554962 
	C324.787415,513.018982 326.737762,516.368347 330.656433,520.288025 
	C337.401886,527.035156 343.575378,528.815308 353.083069,526.042847 
	C369.525818,521.247986 386.046082,516.947083 401.106903,508.571503 
	C404.679993,506.584442 409.052704,505.412323 411.636810,501.520233 
	C410.008514,499.954376 408.445557,500.245178 407.036530,500.430206 
	C399.641144,501.401184 392.171234,502.055084 384.889954,503.590607 
	C371.346252,506.446716 359.475616,501.714691 353.214447,489.647583 
	C346.513336,476.732544 337.143219,465.570007 329.891144,453.034882 
	C329.032990,451.551544 328.093201,449.740021 325.665802,450.227936 
	C324.464691,452.975525 325.230621,455.839172 324.989929,459.574677 
M97.719917,220.100357 
	C98.113884,218.661819 98.569641,217.237000 98.892220,215.782623 
	C101.961876,201.942917 93.550240,187.634872 79.672066,184.097275 
	C66.782059,180.811569 51.235985,185.730377 46.255138,201.094315 
	C39.839657,220.883560 53.739193,241.005386 73.659492,239.553741 
	C85.393333,238.698685 93.017319,231.531235 97.719917,220.100357 
M95.468597,417.914642 
	C96.308678,415.921448 97.260887,413.967316 97.970909,411.928802 
	C103.108643,397.177856 94.024612,378.734375 79.346146,375.717987 
	C56.110634,370.943176 41.126175,391.120026 45.438744,409.107269 
	C48.203686,420.639557 57.477001,430.127991 67.703644,431.613983 
	C79.607162,433.343628 88.976662,428.880981 95.468597,417.914642 
M561.208191,358.404236 
	C564.128784,346.231171 565.008667,333.793640 565.594299,321.363953 
	C566.381042,304.668213 563.691772,288.228119 561.096741,271.807861 
	C560.206665,266.175842 559.754395,260.427277 557.164185,254.701630 
	C550.530029,259.196594 543.463867,260.639099 536.222351,260.629639 
	C536.023193,261.783691 535.837463,262.273132 535.874146,262.745300 
	C536.067383,265.232788 536.049805,267.775208 536.587280,270.191376 
	C542.554932,297.016876 541.779663,323.941620 537.769653,350.893036 
	C537.366699,353.601257 538.004822,354.531586 540.548523,354.846710 
	C546.522644,355.586945 552.316284,356.995819 557.629700,359.982422 
	C558.977417,360.739929 560.182922,360.719269 561.208191,358.404236 
M69.121201,354.324341 
	C70.719337,349.350983 68.608482,344.596741 68.099297,339.782440 
	C66.132759,321.188721 65.809555,302.633789 68.255562,284.066925 
	C69.266548,276.392822 70.237595,268.713440 71.269386,260.705994 
	C63.179222,260.135773 55.726341,258.797180 48.485359,254.383255 
	C40.372890,290.126984 41.326054,325.102570 47.681664,360.924164 
	C54.764378,357.003326 61.359528,354.917816 69.121201,354.324341 
M348.684845,59.373104 
	C349.286530,57.867451 350.487152,56.534359 349.886414,54.008438 
	C318.847290,45.838654 287.564911,46.808193 255.335663,53.233955 
	C260.071442,61.294876 262.940582,69.144806 262.478027,78.129311 
	C271.465240,77.279289 279.856476,75.910629 288.262451,75.813210 
	C304.549530,75.624443 320.910583,74.507889 337.088074,77.606613 
	C341.451019,78.442314 344.039490,77.220200 344.347076,72.286453 
	C344.619446,67.917542 346.314056,63.886589 348.684845,59.373104 
M367.509338,67.129944 
	C361.819000,78.475044 365.385101,88.467682 372.410156,97.648033 
	C378.856659,106.072372 390.636353,109.239410 400.600586,105.806343 
	C410.535583,102.383362 418.493073,91.773483 418.672455,81.710739 
	C418.889801,69.517769 411.017853,58.352959 399.625946,54.696976 
	C388.030334,50.975616 374.825134,55.874371 367.509338,67.129944 
M199.185669,57.627411 
	C185.539307,67.054276 183.584885,81.989861 194.047897,96.889977 
	C202.233170,108.546410 217.293457,110.415146 229.805679,101.326935 
	C240.237320,93.749954 243.912781,79.836304 238.371292,68.901367 
	C230.758530,53.879204 215.733429,49.341953 199.185669,57.627411 
M327.534851,228.984024 
	C323.238312,237.489563 319.683655,246.244736 318.430908,255.786865 
	C318.006958,259.015808 318.056274,262.201935 320.209229,264.837433 
	C328.654602,275.175598 335.834015,286.341614 342.233826,298.032562 
	C342.784790,299.039093 343.399567,300.230865 344.837402,299.916809 
	C346.175873,299.624390 346.579285,298.466187 346.635498,297.233459 
	C346.703705,295.737030 346.665863,294.236115 346.715118,292.738495 
	C347.557892,267.108826 345.741241,241.536377 345.075073,215.939194 
	C344.984100,212.443756 344.986115,208.945755 344.878418,205.451004 
	C344.843872,204.329132 344.928131,203.037506 342.787354,202.466309 
	C338.527313,205.982224 334.376495,210.178604 332.936523,215.927963 
	C331.820221,220.384964 329.855225,224.312958 327.534851,228.984024 
M308.673004,510.266907 
	C310.508270,508.523315 309.852722,506.229248 309.974030,504.135651 
	C311.227905,482.498138 309.584106,460.773651 311.086639,439.205231 
	C312.114502,424.450165 301.455200,416.880676 295.387482,406.328613 
	C293.076752,441.298523 293.228088,476.063873 293.420319,510.576691 
	C298.917633,510.576691 303.392487,510.576691 308.673004,510.266907 
M480.488525,385.895630 
	C484.005280,387.223236 486.981018,389.826263 490.845032,390.574829 
	C493.091766,386.278503 495.219635,382.209503 497.444336,377.955322 
	C480.883209,367.532654 463.394440,359.359619 445.367798,350.383789 
	C445.367798,356.273438 445.387177,361.234528 445.358124,366.195282 
	C445.346741,368.130310 446.334534,369.058197 448.045685,369.889099 
	C458.668732,375.047363 469.223450,380.346375 480.488525,385.895630 
M460.801941,255.244247 
	C469.614990,250.191864 478.397125,245.084595 487.249298,240.101654 
	C497.207916,234.495880 495.323883,235.981415 491.318115,226.756805 
	C489.765717,223.181854 487.759857,223.556870 485.038239,224.887650 
	C480.569824,227.072556 476.117065,229.300507 471.647705,231.473892 
	C463.160065,235.601334 454.337097,239.247375 446.962341,245.393143 
	C445.807526,246.355499 444.396301,247.215591 444.356110,248.873093 
	C444.241058,253.620377 443.990387,258.388489 444.817810,263.677643 
	C450.842224,261.859283 455.202026,258.128906 460.801941,255.244247 
M122.153107,225.552765 
	C120.499573,224.857971 118.423653,223.478180 117.704498,226.275543 
	C116.711510,230.138062 114.708107,233.505432 112.678627,237.370560 
	C128.969162,246.438980 144.968323,255.345200 161.335419,264.456238 
	C161.772720,260.220215 162.012344,256.742401 162.520676,253.304352 
	C163.016281,249.952454 162.012329,247.800339 158.938141,245.988907 
	C147.053757,238.986053 135.198914,231.945297 122.153107,225.552765 
M130.069504,366.611969 
	C124.086578,369.758667 118.153374,372.975708 113.375893,377.766876 
	C115.581078,382.164429 117.549210,386.089233 119.451233,389.882202 
	C131.552216,383.682281 143.208710,377.659943 154.913437,371.732788 
	C161.456360,368.419556 163.292740,358.705109 158.166687,352.337799 
	C149.075089,356.966431 139.909729,361.632599 130.069504,366.611969 
M350.923492,157.153748 
	C357.208527,158.827805 363.552124,157.350037 369.865723,157.440826 
	C371.545593,157.464981 372.260376,155.895782 372.626892,154.335037 
	C373.790375,149.380600 376.493286,145.206421 379.318237,141.079407 
	C382.300720,136.722366 384.651581,132.050690 386.548370,126.852470 
	C382.206238,125.606911 378.262085,124.863693 374.653961,123.329903 
	C371.137421,121.835052 369.199799,122.554962 367.476105,125.864677 
	C362.113861,136.160797 356.562103,146.358215 350.923492,157.153748 
M233.628235,151.890396 
	C236.258087,157.341248 245.690781,160.146133 253.735794,157.868591 
	C253.806915,157.551239 254.013916,157.191238 253.929626,156.922623 
	C250.048248,144.553986 242.784393,133.956039 236.121506,123.047623 
	C235.362183,121.804474 234.105118,121.253532 232.663681,122.012840 
	C228.910843,123.989716 225.181885,126.011917 221.404266,128.037003 
	C225.300903,136.280670 230.264175,143.257080 233.628235,151.890396 
M335.754486,205.259262 
	C337.369446,203.585373 338.961914,201.889069 340.603363,200.241577 
	C346.865540,193.956467 346.304321,183.334259 339.158234,176.872192 
	C328.785522,188.754745 324.613586,204.345688 315.349731,216.895706 
	C316.384521,215.912750 317.419312,214.929779 318.448242,213.952347 
	C321.155487,216.791946 323.664337,216.009125 326.213562,214.273239 
	C329.682098,211.911316 332.516388,208.882690 335.754486,205.259262 
z"/>
</svg>